# xmcd CD database file
#
# Track frame offsets:
#	150
#	98249
#	243135
#
# Disc length: 3714 seconds
#
# Revision: 0
# Processed by: cddbd v1.5.2PL0 Copyright (c) Steve Scherf et al.
# Submitted via: CDex 1.51
#
DISCID=190e8003
DTITLE=Shapeshifter - Shamballa
DYEAR=1900
DGENRE=New Age
TTITLE0=Abundance
TTITLE1=Clearing
TTITLE2=Opening
EXTD=
EXTT0=
EXTT1=
EXTT2=
PLAYORDER=
